<svg width="35" height="35" viewBox="0 0 35 35" fill="none" xmlns="http://www.w3.org/2000/svg">
<rect x="0.130859" width="34.1306" height="34.1306" rx="13.1271" fill="white"/>
<path d="M17.2506 6.02041C14.4833 6.00324 11.805 7.01058 9.71741 8.85362C7.62985 10.6967 6.27649 13.2489 5.91094 16.0319C5.5454 18.8149 6.19278 21.6376 7.73177 23.971C9.27076 26.3043 11.5957 27.9882 14.2708 28.7068C14.2424 26.7554 14.2376 23.9965 14.2424 22.5738H11.5231C11.3698 22.5738 11.2227 22.512 11.1144 22.402C11.006 22.2921 10.9451 22.1429 10.9451 21.9874V18.9161C10.9464 18.7614 11.0078 18.6135 11.1161 18.5046C11.2243 18.3956 11.3706 18.3345 11.5231 18.3345H14.2708C14.304 15.8015 14.3466 15.1863 14.3466 15.1863C14.3466 14.6308 14.4544 14.0808 14.6639 13.5677C14.8735 13.0545 15.1805 12.5882 15.5676 12.1955C15.9547 11.8027 16.4143 11.4911 16.9201 11.2786C17.4259 11.066 17.9681 10.9566 18.5155 10.9566H21.1211C21.2418 10.9566 21.3613 10.9807 21.4728 11.0276C21.5843 11.0745 21.6856 11.1431 21.771 11.2297C21.8563 11.3163 21.924 11.4191 21.9702 11.5322C22.0163 11.6454 22.0401 11.7666 22.0401 11.8891V15.1863H19.951C19.6197 15.1876 19.3022 15.3216 19.0679 15.5593C18.8336 15.797 18.7015 16.119 18.7002 16.4552C18.7002 17.229 18.7002 17.0848 18.7002 18.3345H21.5427C21.6105 18.3345 21.6777 18.3481 21.7403 18.3744C21.803 18.4007 21.8599 18.4393 21.9078 18.488C21.9558 18.5366 21.9938 18.5944 22.0198 18.6579C22.0457 18.7215 22.0591 18.7896 22.0591 18.8584V22.0307C22.0591 22.0995 22.0457 22.1676 22.0198 22.2312C21.9938 22.2947 21.9558 22.3525 21.9078 22.4011C21.8599 22.4498 21.803 22.4884 21.7403 22.5147C21.6777 22.541 21.6105 22.5546 21.5427 22.5546H18.7002C18.7002 23.9965 18.7002 26.9765 18.7002 29C21.6026 28.672 24.2694 27.2234 26.1477 24.9546C28.0259 22.6858 28.9717 19.7708 28.789 16.8137C28.6062 13.8565 27.3089 11.0842 25.1661 9.07114C23.0232 7.05813 20.1991 5.95886 17.279 6.00118L17.2506 6.02041Z" fill="#896CFE"/>
</svg>
