<svg width="35" height="35" viewBox="0 0 35 35" fill="none" xmlns="http://www.w3.org/2000/svg">
<rect x="0.260742" width="34.1306" height="34.1306" rx="13.1271" fill="white"/>
<path d="M24.6198 26.774C24.258 25.5617 24.6815 24.2627 25.1542 23.0874C25.9548 21.2353 26.3917 19.2457 26.441 17.2276C26.441 13.5863 25.183 9.82957 22.482 7.30996C21.1072 6.05931 19.338 5.33287 17.4835 5.25749C15.629 5.18212 13.8071 5.76261 12.3358 6.89759C9.12508 9.37184 8.09315 13.5409 8.13838 17.4255V19.2894M21.409 10.8894C19.7975 8.82751 17.5816 8.00276 15.3082 9.00896C13.5239 9.80072 12.3317 11.5409 11.7232 13.343C10.9545 15.6111 11.3121 17.9905 11.0614 20.3328C10.9257 21.6565 10.4529 23.0256 9.41692 23.8421M22.5643 12.9884C23.0726 14.336 23.329 15.7661 23.3207 17.2069C23.312 19.028 22.8902 20.8232 22.0874 22.4565C21.631 23.3926 20.669 25.0421 19.3946 24.3946C18.3545 23.8668 18.5271 22.6462 18.8231 21.7142C19.3863 19.9451 20.2086 18.4152 20.2908 16.51C20.3689 14.7245 19.8098 12.8482 18.0421 12.0976C17.5389 11.8809 16.9782 11.8382 16.4482 11.9763C15.9183 12.1144 15.4492 12.4255 15.1149 12.8605C13.6143 14.9224 14.4613 17.2069 13.7665 19.4791M16.5497 19.842C15.8673 21.7554 15.0862 24.0359 15.7275 26.0648C16.5127 28.539 19.337 29.3885 21.6063 28.5885M13.3636 22.2379C13.1506 23.0232 12.8456 23.7803 12.455 24.4936C12.0629 25.2097 11.4974 25.8153 10.8106 26.2544M17.1869 17.174C17.3456 16.4751 17.39 15.7551 17.3185 15.042C17.4079 15.7546 17.3633 16.4778 17.1869 17.174Z" stroke="#896CFE" stroke-width="1.42515" stroke-linecap="round" stroke-linejoin="round"/>
</svg>
